<?xml version="1.0" standalone="no"?>
<!DOCTYPE svg PUBLIC "-//W3C//DTD SVG 20010904//EN"
 "http://www.w3.org/TR/2001/REC-SVG-20010904/DTD/svg10.dtd">
<svg version="1.0" xmlns="http://www.w3.org/2000/svg"
 width="260.000000pt" height="260.000000pt" viewBox="0 0 260.000000 260.000000"
 preserveAspectRatio="xMidYMid meet">
<metadata>
Created by potrace 1.14, written by Peter Selinger 2001-2017
</metadata>
<g transform="translate(0.000000,260.000000) scale(0.100000,-0.100000)"
fill="#000000" stroke="none">
<path d="M0 2056 l0 -544 133 42 132 42 3 237 2 237 165 0 165 0 0 -186 c0
-145 3 -185 13 -181 6 2 71 23 143 45 l130 41 91 90 c76 75 105 96 184 134
114 54 165 68 289 76 l94 6 21 53 c13 33 26 52 36 52 27 0 41 -27 37 -70 -3
-37 -2 -40 27 -46 52 -10 167 -54 230 -87 36 -19 94 -65 146 -117 73 -73 94
-101 132 -180 78 -161 97 -339 57 -508 -24 -100 -24 -103 -5 -96 8 4 15 2 15
-4 0 -6 10 -8 23 -5 18 4 19 3 7 -6 -8 -6 -10 -11 -5 -12 6 0 42 -2 80 -4 124
-7 215 -18 215 -26 0 -5 9 -9 20 -9 20 0 20 7 20 785 l0 785 -385 0 c-212 0
-384 -3 -384 -7 4 -23 -2 -33 -13 -26 -7 4 -21 6 -30 5 -11 -2 -18 3 -18 12 0
14 -89 16 -885 16 l-885 0 0 -544z m1806 459 c-8 -7 -13 -15 -10 -18 3 -3 -4
-3 -15 0 -13 3 -29 -1 -41 -12 -14 -13 -23 -14 -37 -7 -20 12 -22 10 52 35 52
17 73 18 51 2z m-29 -31 c-3 -3 -12 -4 -19 -1 -8 3 -5 6 6 6 11 1 17 -2 13 -5z
m-9 -31 c-5 -7 -15 -10 -20 -7 -5 3 -18 -2 -28 -11 -11 -10 -26 -15 -35 -11
-19 7 -11 26 11 26 8 0 13 3 11 8 -3 4 12 7 34 7 30 1 36 -2 27 -12z m-7 -97
c-6 -14 -12 -26 -14 -26 -8 0 -2 46 7 52 16 11 18 3 7 -26z m-101 -25 c0 -5 7
-17 16 -25 17 -18 7 -21 -33 -10 -19 5 -21 10 -12 25 10 20 29 26 29 10z
m-1406 -520 c-11 -11 -84 -21 -84 -12 0 13 8 16 51 18 26 2 39 -1 33 -6z
m-104 -31 c-20 -13 -30 -12 -30 1 0 5 4 8 9 4 5 -3 13 0 16 6 4 5 10 8 13 4 4
-3 0 -10 -8 -15z"/>
<path d="M1631 1783 c1 -5 0 -10 -1 -13 -3 -8 -11 -44 -14 -60 -1 -9 -6 -21
-10 -29 -5 -7 -4 -16 1 -20 10 -7 13 -61 3 -61 -4 0 -7 -6 -8 -12 -2 -23 -7
-43 -15 -55 -5 -8 -3 -13 4 -13 7 0 8 -5 3 -12 -5 -7 -9 -52 -9 -100 0 -68 -3
-89 -15 -93 -11 -5 -12 -8 -2 -14 9 -6 10 -15 3 -33 -5 -14 -7 -29 -3 -33 4
-4 7 -11 7 -17 0 -6 9 -16 20 -22 11 -6 22 -14 25 -18 7 -9 105 -27 165 -31
28 -2 56 -6 62 -10 16 -10 41 35 59 105 24 94 15 232 -21 321 -34 84 -106 166
-177 201 -52 26 -79 32 -77 19z"/>
<path d="M170 1242 c0 -5 7 -9 15 -9 8 0 12 4 9 9 -3 4 -9 8 -15 8 -5 0 -9 -4
-9 -8z"/>
<path d="M775 750 c-93 -32 -171 -63 -173 -69 -2 -6 -18 -11 -37 -11 -18 0
-88 -20 -156 -45 -68 -24 -155 -54 -194 -65 -38 -12 -79 -25 -90 -30 -11 -5
-42 -15 -70 -23 l-50 -14 -3 -247 -2 -246 449 0 450 0 68 25 c37 13 147 51
242 85 96 33 180 65 187 71 9 8 2 39 -31 132 -24 67 -63 179 -87 249 l-42 127
-49 21 c-27 12 -78 39 -113 60 -43 27 -74 39 -97 38 -18 -1 -109 -27 -202 -58z"/>
<path d="M1932 609 c-18 -6 -35 -16 -39 -24 -3 -8 -13 -15 -22 -15 -14 0 -14
2 -1 11 12 8 11 10 -5 7 -11 -2 -20 -8 -19 -13 1 -6 -6 -16 -15 -23 -14 -11
-12 -11 7 -2 13 6 28 9 35 6 7 -2 4 -5 -5 -5 -10 -1 -18 -5 -18 -10 0 -5 -10
-13 -21 -16 -15 -5 -18 -10 -9 -15 8 -5 7 -9 -5 -13 -13 -5 -14 -11 -5 -27 9
-16 8 -20 -5 -20 -10 0 -13 5 -9 12 4 7 3 8 -5 4 -6 -4 -17 -3 -24 3 -9 7 -17
7 -27 -1 -12 -8 -12 -9 2 -4 10 3 20 1 23 -4 9 -15 -13 -22 -35 -10 -12 6 -20
7 -20 1 0 -5 10 -13 21 -16 17 -6 19 -9 8 -16 -8 -5 -16 -3 -21 4 -5 8 -8 7
-8 -5 0 -9 6 -19 13 -22 6 -4 1 -4 -11 -2 -13 3 -21 2 -18 -1 3 -3 -2 -12 -12
-19 -9 -7 -17 -23 -17 -35 0 -14 -9 -28 -23 -35 -32 -16 -38 -24 -13 -17 18 4
20 2 14 -13 -6 -18 -6 -18 15 -1 20 18 20 18 16 0 -3 -11 -18 -24 -32 -30
l-27 -11 30 -1 c29 -2 29 -2 10 -17 -20 -16 -20 -16 1 -10 14 4 21 2 21 -8 0
-9 -4 -13 -8 -11 -4 3 -10 -6 -13 -20 -7 -26 18 -65 41 -65 7 0 13 -8 13 -18
0 -24 33 -62 53 -62 9 0 19 -5 22 -10 4 -6 111 -10 293 -9 158 1 280 3 271 6
-17 4 -42 49 -35 61 2 4 -14 21 -36 37 -25 19 -49 50 -66 87 -22 48 -28 55
-41 46 -10 -7 -9 -4 2 8 18 19 19 18 54 -21 111 -125 165 -172 216 -190 34
-11 37 -11 37 5 0 10 -7 21 -16 24 -10 4 -13 13 -9 26 4 13 -8 50 -36 107 -28
57 -43 103 -45 133 -1 25 -5 55 -9 68 -4 13 -3 22 3 22 12 0 36 -57 57 -141
22 -82 31 -99 57 -99 19 0 20 4 14 53 -3 28 -9 66 -11 83 -3 17 -1 43 4 57 7
19 7 27 0 27 -6 0 -8 4 -4 9 7 12 -33 41 -56 41 -15 0 -31 21 -33 44 -1 15
-87 77 -99 73 -6 -2 -19 5 -29 15 -21 21 -56 24 -64 4 -4 -11 -14 -9 -47 10
-35 20 -55 24 -117 23 -41 0 -90 -5 -108 -10z m238 -45 c0 -1 -4 -5 -9 -8 -5
-3 -16 6 -26 20 l-16 25 25 -16 c14 -10 26 -19 26 -21z m170 -119 c0 -11 -48
11 -62 29 -30 36 -20 39 22 6 22 -17 40 -33 40 -35z m-345 -33 c-3 -3 -11 0
-18 7 -9 10 -8 11 6 5 10 -3 15 -9 12 -12z m-300 -62 c3 -6 -1 -7 -9 -4 -18 7
-21 14 -7 14 6 0 13 -4 16 -10z"/>
<path d="M1620 320 c-13 -8 -12 -10 3 -10 9 0 17 5 17 10 0 12 -1 12 -20 0z"/>
</g>
</svg>
